Coordinates
version=1
nRows=16
nColumns=40
inDegrees=yes

Units are S.I. units (second, meters, Newtons, ...)
If the header above contains a line with 'inDegrees', this indicates whether rotational values are in degrees (yes) or radians (no).

endheader
time	pelvis_tilt	pelvis_list	pelvis_rotation	pelvis_tx	pelvis_ty	pelvis_tz	hip_flexion_r	hip_adduction_r	hip_rotation_r	knee_angle_r	knee_angle_r_beta	ankle_angle_r	subtalar_angle_r	mtp_angle_r	hip_flexion_l	hip_adduction_l	hip_rotation_l	knee_angle_l	knee_angle_l_beta	ankle_angle_l	subtalar_angle_l	mtp_angle_l	lumbar_extension	lumbar_bending	lumbar_rotation	arm_flex_r	arm_add_r	arm_rot_r	elbow_flex_r	pro_sup_r	wrist_flex_r	wrist_dev_r	arm_flex_l	arm_add_l	arm_rot_l	elbow_flex_l	pro_sup_l	wrist_flex_l	wrist_dev_l
     22.43000000	    -89.40171025	     73.55266346	    -88.89651814	      0.84469402	      0.28066902	      0.57446252	     45.00000012	     -9.99999999	      0.00000000	     60.00014062	      1.04720001	     -4.99999985	      0.00000000	      0.00000000	     45.00000012	     -9.99999999	      0.00000000	     60.00014062	      1.04720001	     -4.99999985	      0.00000000	      0.00000000	    -16.68117523	     -0.64083920	      1.87423194	      3.12986819	    -29.40804720	     34.64345870	     82.90733996	     87.28956766	      0.00000000	      0.00000000	      0.88424168	    -25.95782176	     24.35392902	     75.95903255	     89.03645022	      0.00000000	      0.00000000
     22.43500000	    -89.40692953	     73.56090818	    -88.87318476	      0.84473606	      0.28063927	      0.57443451	     45.00000012	     -9.99999999	      0.00000000	     60.00014062	      1.04720001	     -4.99999985	      0.00000000	      0.00000000	     45.00000012	     -9.99999999	      0.00000000	     60.00014062	      1.04720001	     -4.99999985	      0.00000000	      0.00000000	    -16.68174771	     -0.63085179	      1.85105642	      3.13515428	    -29.40141876	     34.63915191	     82.91697324	     87.29579926	      0.00000000	      0.00000000	      0.86297271	    -25.96183880	     24.30807594	     75.99933970	     89.04182804	      0.00000000	      0.00000000
     22.44000000	    -89.40375563	     73.57450489	    -88.85942256	      0.84475685	      0.28057912	      0.57439306	     45.00000012	     -9.99999999	      0.00000000	     60.00014062	      1.04720001	     -4.99999985	      0.00000000	      0.00000000	     45.00000012	     -9.99999999	      0.00000000	     60.00014062	      1.04720001	     -4.99999985	      0.00000000	      0.00000000	    -16.67457978	     -0.62529582	      1.81501274	      3.16894796	    -29.42511719	     34.71633995	     82.92904146	     87.27997489	      0.00000000	      0.00000000	      0.82576071	    -25.95570124	     24.25388253	     76.03297457	     89.04516563	      0.00000000	      0.00000000
     22.44500000	    -89.39501899	     73.50665062	    -88.86744851	      0.84469539	      0.28057491	      0.57449899	     45.00000012	     -9.99999999	      0.00000000	     60.00014062	      1.04720001	     -4.99999985	      0.00000000	      0.00000000	     45.00000012	     -9.99999999	      0.00000000	     60.00014062	      1.04720001	     -4.99999985	      0.00000000	      0.00000000	    -16.73895733	     -0.62686053	      1.83233513	      3.12285352	    -29.42174200	     34.62995762	     82.94771932	     87.31553936	      0.00000000	      0.00000000	      0.86370960	    -25.97049194	     24.32899673	     76.01416522	     89.03645547	      0.00000000	      0.00000000
     22.45000000	    -89.39947264	     73.57061009	    -88.87891420	      0.84471087	      0.28058533	      0.57435682	     45.00000012	     -9.99999999	      0.00000000	     60.00014062	      1.04720001	     -4.99999985	      0.00000000	      0.00000000	     45.00000012	     -9.99999999	      0.00000000	     60.00014062	      1.04720001	     -4.99999985	      0.00000000	      0.00000000	    -16.66424459	     -0.62972406	      1.84978187	      3.11358369	    -29.41421161	     34.62568310	     82.93002465	     87.29343770	      0.00000000	      0.00000000	      0.85530918	    -25.95477022	     24.30603006	     76.00007934	     89.03431009	      0.00000000	      0.00000000
     22.45500000	    -89.39804764	     73.52738765	    -88.86922269	      0.84467309	      0.28056504	      0.57443852	     45.00000012	     -9.99999999	      0.00000000	     60.00014062	      1.04720001	     -4.99999985	      0.00000000	      0.00000000	     45.00000012	     -9.99999999	      0.00000000	     60.00014062	      1.04720001	     -4.99999985	      0.00000000	      0.00000000	    -16.71236887	     -0.62098164	      1.84780929	      3.08914036	    -29.40795742	     34.58590421	     82.95633357	     87.31552376	      0.00000000	      0.00000000	      0.87517757	    -25.96168187	     24.34331826	     75.99161009	     89.03871635	      0.00000000	      0.00000000
     22.46000000	    -89.39785920	     73.69194933	    -88.88166665	      0.84473259	      0.28059846	      0.57407446	     45.00000012	     -9.99999999	      0.00000000	     60.00014062	      1.04720001	     -4.99999985	      0.00000000	      0.00000000	     45.00000012	     -9.99999999	      0.00000000	     60.00014062	      1.04720001	     -4.99999985	      0.00000000	      0.00000000	    -16.53295219	     -0.63035863	      1.84424566	      3.08200340	    -29.39982597	     34.60703550	     82.93248338	     87.26845877	      0.00000000	      0.00000000	      0.81758587	    -25.95555328	     24.26846894	     76.02908536	     89.02640434	      0.00000000	      0.00000000
     22.46500000	    -89.40040246	     73.55813771	    -88.87093286	      0.84468109	      0.28057886	      0.57436119	     45.00000012	     -9.99999999	      0.00000000	     60.00014062	      1.04720001	     -4.99999985	      0.00000000	      0.00000000	     45.00000012	     -9.99999999	      0.00000000	     60.00014062	      1.04720001	     -4.99999985	      0.00000000	      0.00000000	    -16.67600162	     -0.62361973	      1.82983243	      3.10115735	    -29.38758741	     34.61776564	     82.91532748	     87.21361429	      0.00000000	      0.00000000	      0.82792948	    -25.95191641	     24.26109751	     76.00611495	     89.03978411	      0.00000000	      0.00000000
     22.47000000	    -89.40451627	     73.53728895	    -88.86893357	      0.84472135	      0.28053602	      0.57435792	     45.00000012	     -9.99999999	      0.00000000	     60.00014062	      1.04720001	     -4.99999985	      0.00000000	      0.00000000	     45.00000012	     -9.99999999	      0.00000000	     60.00014062	      1.04720001	     -4.99999985	      0.00000000	      0.00000000	    -16.70445976	     -0.61940418	      1.83708125	      3.09666851	    -29.41118314	     34.60071237	     82.93076439	     87.28735502	      0.00000000	      0.00000000	      0.83839727	    -25.95703932	     24.27927149	     76.02904670	     89.04266995	      0.00000000	      0.00000000
     22.47500000	    -89.39689366	     73.49988536	    -88.86587706	      0.84464255	      0.28051163	      0.57443821	     45.00000012	     -9.99999999	      0.00000000	     60.00014062	      1.04720001	     -4.99999985	      0.00000000	      0.00000000	     45.00000012	     -9.99999999	      0.00000000	     60.00014062	      1.04720001	     -4.99999985	      0.00000000	      0.00000000	    -16.74015263	     -0.61048646	      1.84120781	      3.04456628	    -29.38857280	     34.52474763	     82.94310234	     87.27781882	      0.00000000	      0.00000000	      0.84675647	    -25.94508597	     24.29171286	     76.01112385	     89.03693879	      0.00000000	      0.00000000
     22.48000000	    -89.40107151	     73.54167613	    -88.87665158	      0.84474330	      0.28057368	      0.57434232	     45.00000012	     -9.99999999	      0.00000000	     60.00014062	      1.04720001	     -4.99999985	      0.00000000	      0.00000000	     45.00000012	     -9.99999999	      0.00000000	     60.00014062	      1.04720001	     -4.99999985	      0.00000000	      0.00000000	    -16.70151370	     -0.62103536	      1.84934640	      3.07286590	    -29.39352698	     34.55483106	     82.93490865	     87.30245295	      0.00000000	      0.00000000	      0.86255974	    -25.95924185	     24.30790580	     75.99892304	     89.03707247	      0.00000000	      0.00000000
     22.48500000	    -89.45382076	     73.62568416	    -88.80215080	      0.84477357	      0.28059503	      0.57420957	     45.00000012	     -9.99999999	      0.00000000	     60.00014062	      1.04720001	     -4.99999985	      0.00000000	      0.00000000	     45.00000012	     -9.99999999	      0.00000000	     60.00014062	      1.04720001	     -4.99999985	      0.00000000	      0.00000000	    -16.61706107	     -0.61069555	      1.81001398	      3.09788073	    -29.39139750	     34.70343505	     83.01598444	     85.55236381	      0.00000000	      0.00000000	      0.83333128	    -25.93225149	     24.23060256	     75.93207889	     89.12645402	      0.00000000	      0.00000000
     22.49000000	    -89.40714358	     73.50418538	    -88.88544582	      0.84467332	      0.28061303	      0.57443435	     45.00000012	     -9.99999999	      0.00000000	     60.00014062	      1.04720001	     -4.99999985	      0.00000000	      0.00000000	     45.00000012	     -9.99999999	      0.00000000	     60.00014062	      1.04720001	     -4.99999985	      0.00000000	      0.00000000	    -16.73894321	     -0.61950618	      1.85563118	      3.07932640	    -29.38209550	     34.55653254	     82.92128084	     87.29365895	      0.00000000	      0.00000000	      0.84956596	    -25.95685096	     24.29313220	     75.99520695	     89.03727616	      0.00000000	      0.00000000
     22.49500000	    -89.40345763	     73.48082959	    -88.88848141	      0.84468838	      0.28059184	      0.57447960	     45.00000012	     -9.99999999	      0.00000000	     60.00014062	      1.04720001	     -4.99999985	      0.00000000	      0.00000000	     45.00000012	     -9.99999999	      0.00000000	     60.00014062	      1.04720001	     -4.99999985	      0.00000000	      0.00000000	    -16.77047884	     -0.61916918	      1.85464291	      3.06782419	    -29.38259615	     34.54056141	     82.93621338	     87.29985226	      0.00000000	      0.00000000	      0.84665703	    -25.95929229	     24.27332857	     76.01735519	     89.03277050	      0.00000000	      0.00000000
     22.50000000	    -89.40107521	     73.50181954	    -88.88293128	      0.84467919	      0.28056740	      0.57445820	     45.00000012	     -9.99999999	      0.00000000	     60.00014062	      1.04720001	     -4.99999985	      0.00000000	      0.00000000	     45.00000012	     -9.99999999	      0.00000000	     60.00014062	      1.04720001	     -4.99999985	      0.00000000	      0.00000000	    -16.74341339	     -0.61559790	      1.85837251	      3.05031865	    -29.38836626	     34.52997572	     82.94050617	     87.26869582	      0.00000000	      0.00000000	      0.86460930	    -25.95313671	     24.31401246	     75.98650387	     89.03687888	      0.00000000	      0.00000000
     22.50500000	    -89.40077264	     73.45882284	    -88.88217593	      0.84465649	      0.28054721	      0.57456011	     45.00000012	     -9.99999999	      0.00000000	     60.00014062	      1.04720001	     -4.99999985	      0.00000000	      0.00000000	     45.00000012	     -9.99999999	      0.00000000	     60.00014062	      1.04720001	     -4.99999985	      0.00000000	      0.00000000	    -16.79060435	     -0.61227173	      1.84187559	      3.07224027	    -29.39130252	     34.55624256	     82.92932050	     87.29045352	      0.00000000	      0.00000000	      0.84954167	    -25.95486259	     24.29846661	     75.99321793	     89.03667326	      0.00000000	      0.00000000
